# xmcd CD database file
#
# Track frame offsets:
#	150
#	24219
#	45357
#	68876
#	92939
#	115582
#	138926
#	165669
#	187746
#	209507
#	231006
#	252550
#
# Disc length: 3702 seconds
#
# Revision: 0
# Processed by: cddbd v1.5.1PL0 Copyright (c) Steve Scherf et al.
# Submitted via: CDex 1.51
#
DISCID=980e740c
DTITLE=Erik Kowarski - The Authentic Sound Of The Didgeridoo
DYEAR=1999
DGENRE=New Age
TTITLE0=Bushwalking
TTITLE1=Crossing The Nullarbor By Kombi
TTITLE2=Dawning Of The Day
TTITLE3=Min-Min Light
TTITLE4=Canoeing On The Blackwood
TTITLE5=A Celtic Dreaming
TTITLE6=Chrysalis
TTITLE7=Sunday Arvo
TTITLE8=White Water Rafting
TTITLE9=Camel Train
TTITLE10=Big Mack
TTITLE11=Twenty Eights
EXTD=YEAR: 1999
EXTT0=
EXTT1=
EXTT2=
EXTT3=
EXTT4=
EXTT5=
EXTT6=
EXTT7=
EXTT8=
EXTT9=
EXTT10=
EXTT11=
PLAYORDER=
